# xmcd
#
# Track frame offsets:
#	150
#	16361
#	38702
#	52275
#	67014
#	85314
#	106973
#	125076
#	140095
#	165232
#	179253
#	193706
#	218622
#	240963
#	254536
#	269275
#	287575
#	309234
#
# Disc length: 4458 seconds
#
# Revision: 1
# Processed by: cddbd v1.5.2PL0 Copyright (c) Steve Scherf et al.
# Submitted via: audiograbber 1.83.01
#
DISCID=04116812
DTITLE=GRANDES INTERPRETES - VARIOS
DYEAR=1900
DGENRE=
TTITLE0=COMO YO TE AME
TTITLE1=SI TU ERES UN HOMBRE Y YO UNA MUJER
TTITLE2=TE QUIERO PARA MI
TTITLE3=DE HOMBRE A HOMBRE
TTITLE4=LA MONTANA
TTITLE5=TODA LA VIDA
TTITLE6=USTED
TTITLE7=SI NO FUERA FIEL
TTITLE8=SOLA OTRA VEZ
TTITLE9=CONCAVO Y CONVEXO
TTITLE10=SENORA
TTITLE11=NO HE PODIDO VERTE
TTITLE12=BORRAR
TTITLE13=BORRAR
TTITLE14=BORRAR
TTITLE15=BORRAR
TTITLE16=BORRAR
TTITLE17=BORRAR
EXTD=
EXTT0=
EXTT1=
EXTT2=
EXTT3=
EXTT4=
EXTT5=
EXTT6=
EXTT7=
EXTT8=
EXTT9=
EXTT10=
EXTT11=
EXTT12=
EXTT13=
EXTT14=
EXTT15=
EXTT16=
EXTT17=
PLAYORDER=
